<?xml version="1.0" encoding="UTF-8"?>
<svg id="Layer_1" data-name="Layer 1" xmlns="http://www.w3.org/2000/svg" viewBox="0 0 101 101">
  <g>
    <rect x=".5" y=".5" width="10" height="10" style="fill: none; stroke: #ececec; stroke-miterlimit: 10; stroke-width: .5px;"/>
    <rect x=".5" y="10.5" width="10" height="10" style="fill: none; stroke: #ececec; stroke-miterlimit: 10; stroke-width: .5px;"/>
    <rect x="10.5" y="10.5" width="10" height="10" style="fill: none; stroke: #ececec; stroke-miterlimit: 10; stroke-width: .5px;"/>
    <rect x="10.5" y=".5" width="10" height="10" style="fill: none; stroke: #ececec; stroke-miterlimit: 10; stroke-width: .5px;"/>
    <rect x="20.5" y=".5" width="10" height="10" style="fill: none; stroke: #ececec; stroke-miterlimit: 10; stroke-width: .5px;"/>
    <rect x="20.5" y="10.5" width="10" height="10" style="fill: none; stroke: #ececec; stroke-miterlimit: 10; stroke-width: .5px;"/>
    <rect x="30.5" y="10.5" width="10" height="10" style="fill: none; stroke: #ececec; stroke-miterlimit: 10; stroke-width: .5px;"/>
    <rect x="30.5" y=".5" width="10" height="10" style="fill: none; stroke: #ececec; stroke-miterlimit: 10; stroke-width: .5px;"/>
    <rect x="40.5" y=".5" width="10" height="10" style="fill: none; stroke: #ececec; stroke-miterlimit: 10; stroke-width: .5px;"/>
    <rect x="40.5" y="10.5" width="10" height="10" style="fill: none; stroke: #ececec; stroke-miterlimit: 10; stroke-width: .5px;"/>
    <rect x="50.5" y="10.5" width="10" height="10" style="fill: none; stroke: #ececec; stroke-miterlimit: 10; stroke-width: .5px;"/>
    <rect x="50.5" y=".5" width="10" height="10" style="fill: none; stroke: #ececec; stroke-miterlimit: 10; stroke-width: .5px;"/>
    <rect x="60.5" y=".5" width="10" height="10" style="fill: none; stroke: #ececec; stroke-miterlimit: 10; stroke-width: .5px;"/>
    <rect x="60.5" y="10.5" width="10" height="10" style="fill: none; stroke: #ececec; stroke-miterlimit: 10; stroke-width: .5px;"/>
    <rect x="70.5" y="10.5" width="10" height="10" style="fill: none; stroke: #ececec; stroke-miterlimit: 10; stroke-width: .5px;"/>
    <rect x="70.5" y=".5" width="10" height="10" style="fill: none; stroke: #ececec; stroke-miterlimit: 10; stroke-width: .5px;"/>
    <rect x="80.5" y=".5" width="10" height="10" style="fill: none; stroke: #ececec; stroke-miterlimit: 10; stroke-width: .5px;"/>
    <rect x="80.5" y="10.5" width="10" height="10" style="fill: none; stroke: #ececec; stroke-miterlimit: 10; stroke-width: .5px;"/>
    <rect x="90.5" y="10.5" width="10" height="10" style="fill: none; stroke: #ececec; stroke-miterlimit: 10; stroke-width: .5px;"/>
    <rect x="90.5" y=".5" width="10" height="10" style="fill: none; stroke: #ececec; stroke-miterlimit: 10; stroke-width: .5px;"/>
    <rect x=".5" y="20.5" width="10" height="10" style="fill: none; stroke: #ececec; stroke-miterlimit: 10; stroke-width: .5px;"/>
    <rect x=".5" y="30.5" width="10" height="10" style="fill: none; stroke: #ececec; stroke-miterlimit: 10; stroke-width: .5px;"/>
    <rect x="10.5" y="30.5" width="10" height="10" style="fill: none; stroke: #ececec; stroke-miterlimit: 10; stroke-width: .5px;"/>
    <rect x="10.5" y="20.5" width="10" height="10" style="fill: none; stroke: #ececec; stroke-miterlimit: 10; stroke-width: .5px;"/>
    <rect x="20.5" y="20.5" width="10" height="10" style="fill: none; stroke: #ececec; stroke-miterlimit: 10; stroke-width: .5px;"/>
    <rect x="20.5" y="30.5" width="10" height="10" style="fill: none; stroke: #ececec; stroke-miterlimit: 10; stroke-width: .5px;"/>
    <rect x="30.5" y="30.5" width="10" height="10" style="fill: none; stroke: #ececec; stroke-miterlimit: 10; stroke-width: .5px;"/>
    <rect x="30.5" y="20.5" width="10" height="10" style="fill: none; stroke: #ececec; stroke-miterlimit: 10; stroke-width: .5px;"/>
    <rect x="40.5" y="20.5" width="10" height="10" style="fill: none; stroke: #ececec; stroke-miterlimit: 10; stroke-width: .5px;"/>
    <rect x="40.5" y="30.5" width="10" height="10" style="fill: none; stroke: #ececec; stroke-miterlimit: 10; stroke-width: .5px;"/>
    <rect x="50.5" y="30.5" width="10" height="10" style="fill: none; stroke: #ececec; stroke-miterlimit: 10; stroke-width: .5px;"/>
    <rect x="50.5" y="20.5" width="10" height="10" style="fill: none; stroke: #ececec; stroke-miterlimit: 10; stroke-width: .5px;"/>
    <rect x="60.5" y="20.5" width="10" height="10" style="fill: none; stroke: #ececec; stroke-miterlimit: 10; stroke-width: .5px;"/>
    <rect x="60.5" y="30.5" width="10" height="10" style="fill: none; stroke: #ececec; stroke-miterlimit: 10; stroke-width: .5px;"/>
    <rect x="70.5" y="30.5" width="10" height="10" style="fill: none; stroke: #ececec; stroke-miterlimit: 10; stroke-width: .5px;"/>
    <rect x="70.5" y="20.5" width="10" height="10" style="fill: none; stroke: #ececec; stroke-miterlimit: 10; stroke-width: .5px;"/>
    <rect x="80.5" y="20.5" width="10" height="10" style="fill: none; stroke: #ececec; stroke-miterlimit: 10; stroke-width: .5px;"/>
    <rect x="80.5" y="30.5" width="10" height="10" style="fill: none; stroke: #ececec; stroke-miterlimit: 10; stroke-width: .5px;"/>
    <rect x="90.5" y="30.5" width="10" height="10" style="fill: none; stroke: #ececec; stroke-miterlimit: 10; stroke-width: .5px;"/>
    <rect x="90.5" y="20.5" width="10" height="10" style="fill: none; stroke: #ececec; stroke-miterlimit: 10; stroke-width: .5px;"/>
    <rect x=".5" y="40.5" width="10" height="10" style="fill: none; stroke: #ececec; stroke-miterlimit: 10; stroke-width: .5px;"/>
    <rect x=".5" y="50.5" width="10" height="10" style="fill: none; stroke: #ececec; stroke-miterlimit: 10; stroke-width: .5px;"/>
    <rect x="10.5" y="50.5" width="10" height="10" style="fill: none; stroke: #ececec; stroke-miterlimit: 10; stroke-width: .5px;"/>
    <rect x="10.5" y="40.5" width="10" height="10" style="fill: none; stroke: #ececec; stroke-miterlimit: 10; stroke-width: .5px;"/>
    <rect x="20.5" y="40.5" width="10" height="10" style="fill: none; stroke: #ececec; stroke-miterlimit: 10; stroke-width: .5px;"/>
    <rect x="20.5" y="50.5" width="10" height="10" style="fill: none; stroke: #ececec; stroke-miterlimit: 10; stroke-width: .5px;"/>
    <rect x="30.5" y="50.5" width="10" height="10" style="fill: none; stroke: #ececec; stroke-miterlimit: 10; stroke-width: .5px;"/>
    <rect x="30.5" y="40.5" width="10" height="10" style="fill: none; stroke: #ececec; stroke-miterlimit: 10; stroke-width: .5px;"/>
    <rect x="40.5" y="40.5" width="10" height="10" style="fill: none; stroke: #ececec; stroke-miterlimit: 10; stroke-width: .5px;"/>
    <rect x="40.5" y="50.5" width="10" height="10" style="fill: none; stroke: #ececec; stroke-miterlimit: 10; stroke-width: .5px;"/>
    <rect x="50.5" y="50.5" width="10" height="10" style="fill: none; stroke: #ececec; stroke-miterlimit: 10; stroke-width: .5px;"/>
    <rect x="50.5" y="40.5" width="10" height="10" style="fill: none; stroke: #ececec; stroke-miterlimit: 10; stroke-width: .5px;"/>
    <rect x="60.5" y="40.5" width="10" height="10" style="fill: none; stroke: #ececec; stroke-miterlimit: 10; stroke-width: .5px;"/>
    <rect x="60.5" y="50.5" width="10" height="10" style="fill: none; stroke: #ececec; stroke-miterlimit: 10; stroke-width: .5px;"/>
    <rect x="70.5" y="50.5" width="10" height="10" style="fill: none; stroke: #ececec; stroke-miterlimit: 10; stroke-width: .5px;"/>
    <rect x="70.5" y="40.5" width="10" height="10" style="fill: none; stroke: #ececec; stroke-miterlimit: 10; stroke-width: .5px;"/>
    <rect x="80.5" y="40.5" width="10" height="10" style="fill: none; stroke: #ececec; stroke-miterlimit: 10; stroke-width: .5px;"/>
    <rect x="80.5" y="50.5" width="10" height="10" style="fill: none; stroke: #ececec; stroke-miterlimit: 10; stroke-width: .5px;"/>
    <rect x="90.5" y="50.5" width="10" height="10" style="fill: none; stroke: #ececec; stroke-miterlimit: 10; stroke-width: .5px;"/>
    <rect x="90.5" y="40.5" width="10" height="10" style="fill: none; stroke: #ececec; stroke-miterlimit: 10; stroke-width: .5px;"/>
    <rect x=".5" y="60.5" width="10" height="10" style="fill: none; stroke: #ececec; stroke-miterlimit: 10; stroke-width: .5px;"/>
    <rect x=".5" y="70.5" width="10" height="10" style="fill: none; stroke: #ececec; stroke-miterlimit: 10; stroke-width: .5px;"/>
    <rect x="10.5" y="70.5" width="10" height="10" style="fill: none; stroke: #ececec; stroke-miterlimit: 10; stroke-width: .5px;"/>
    <rect x="10.5" y="60.5" width="10" height="10" style="fill: none; stroke: #ececec; stroke-miterlimit: 10; stroke-width: .5px;"/>
    <rect x="20.5" y="60.5" width="10" height="10" style="fill: none; stroke: #ececec; stroke-miterlimit: 10; stroke-width: .5px;"/>
    <rect x="20.5" y="70.5" width="10" height="10" style="fill: none; stroke: #ececec; stroke-miterlimit: 10; stroke-width: .5px;"/>
    <rect x="30.5" y="70.5" width="10" height="10" style="fill: none; stroke: #ececec; stroke-miterlimit: 10; stroke-width: .5px;"/>
    <rect x="30.5" y="60.5" width="10" height="10" style="fill: none; stroke: #ececec; stroke-miterlimit: 10; stroke-width: .5px;"/>
    <rect x="40.5" y="60.5" width="10" height="10" style="fill: none; stroke: #ececec; stroke-miterlimit: 10; stroke-width: .5px;"/>
    <rect x="40.5" y="70.5" width="10" height="10" style="fill: none; stroke: #ececec; stroke-miterlimit: 10; stroke-width: .5px;"/>
    <rect x="50.5" y="70.5" width="10" height="10" style="fill: none; stroke: #ececec; stroke-miterlimit: 10; stroke-width: .5px;"/>
    <rect x="50.5" y="60.5" width="10" height="10" style="fill: none; stroke: #ececec; stroke-miterlimit: 10; stroke-width: .5px;"/>
    <rect x="60.5" y="60.5" width="10" height="10" style="fill: none; stroke: #ececec; stroke-miterlimit: 10; stroke-width: .5px;"/>
    <rect x="60.5" y="70.5" width="10" height="10" style="fill: none; stroke: #ececec; stroke-miterlimit: 10; stroke-width: .5px;"/>
    <rect x="70.5" y="70.5" width="10" height="10" style="fill: none; stroke: #ececec; stroke-miterlimit: 10; stroke-width: .5px;"/>
    <rect x="70.5" y="60.5" width="10" height="10" style="fill: none; stroke: #ececec; stroke-miterlimit: 10; stroke-width: .5px;"/>
    <rect x="80.5" y="60.5" width="10" height="10" style="fill: none; stroke: #ececec; stroke-miterlimit: 10; stroke-width: .5px;"/>
    <rect x="80.5" y="70.5" width="10" height="10" style="fill: none; stroke: #ececec; stroke-miterlimit: 10; stroke-width: .5px;"/>
    <rect x="90.5" y="70.5" width="10" height="10" style="fill: none; stroke: #ececec; stroke-miterlimit: 10; stroke-width: .5px;"/>
    <rect x="90.5" y="60.5" width="10" height="10" style="fill: none; stroke: #ececec; stroke-miterlimit: 10; stroke-width: .5px;"/>
    <rect x=".5" y="80.5" width="10" height="10" style="fill: none; stroke: #ececec; stroke-miterlimit: 10; stroke-width: .5px;"/>
    <rect x=".5" y="90.5" width="10" height="10" style="fill: none; stroke: #ececec; stroke-miterlimit: 10; stroke-width: .5px;"/>
    <rect x="10.5" y="90.5" width="10" height="10" style="fill: none; stroke: #ececec; stroke-miterlimit: 10; stroke-width: .5px;"/>
    <rect x="10.5" y="80.5" width="10" height="10" style="fill: none; stroke: #ececec; stroke-miterlimit: 10; stroke-width: .5px;"/>
    <rect x="20.5" y="80.5" width="10" height="10" style="fill: none; stroke: #ececec; stroke-miterlimit: 10; stroke-width: .5px;"/>
    <rect x="20.5" y="90.5" width="10" height="10" style="fill: none; stroke: #ececec; stroke-miterlimit: 10; stroke-width: .5px;"/>
    <rect x="30.5" y="90.5" width="10" height="10" style="fill: none; stroke: #ececec; stroke-miterlimit: 10; stroke-width: .5px;"/>
    <rect x="30.5" y="80.5" width="10" height="10" style="fill: none; stroke: #ececec; stroke-miterlimit: 10; stroke-width: .5px;"/>
    <rect x="40.5" y="80.5" width="10" height="10" style="fill: none; stroke: #ececec; stroke-miterlimit: 10; stroke-width: .5px;"/>
    <rect x="40.5" y="90.5" width="10" height="10" style="fill: none; stroke: #ececec; stroke-miterlimit: 10; stroke-width: .5px;"/>
    <rect x="50.5" y="90.5" width="10" height="10" style="fill: none; stroke: #ececec; stroke-miterlimit: 10; stroke-width: .5px;"/>
    <rect x="50.5" y="80.5" width="10" height="10" style="fill: none; stroke: #ececec; stroke-miterlimit: 10; stroke-width: .5px;"/>
    <rect x="60.5" y="80.5" width="10" height="10" style="fill: none; stroke: #ececec; stroke-miterlimit: 10; stroke-width: .5px;"/>
    <rect x="60.5" y="90.5" width="10" height="10" style="fill: none; stroke: #ececec; stroke-miterlimit: 10; stroke-width: .5px;"/>
    <rect x="70.5" y="90.5" width="10" height="10" style="fill: none; stroke: #ececec; stroke-miterlimit: 10; stroke-width: .5px;"/>
    <rect x="70.5" y="80.5" width="10" height="10" style="fill: none; stroke: #ececec; stroke-miterlimit: 10; stroke-width: .5px;"/>
    <rect x="80.5" y="80.5" width="10" height="10" style="fill: none; stroke: #ececec; stroke-miterlimit: 10; stroke-width: .5px;"/>
    <rect x="80.5" y="90.5" width="10" height="10" style="fill: none; stroke: #ececec; stroke-miterlimit: 10; stroke-width: .5px;"/>
    <rect x="90.5" y="90.5" width="10" height="10" style="fill: none; stroke: #ececec; stroke-miterlimit: 10; stroke-width: .5px;"/>
    <rect x="90.5" y="80.5" width="10" height="10" style="fill: none; stroke: #ececec; stroke-miterlimit: 10; stroke-width: .5px;"/>
  </g>
  <g>
    <line x1=".5" y1=".5" x2=".5" y2="100.5" style="fill: none; stroke: #ccc; stroke-linecap: square; stroke-miterlimit: 10;"/>
    <line x1=".5" y1=".5" x2="100.5" y2=".5" style="fill: none; stroke: #ccc; stroke-linecap: square; stroke-miterlimit: 10;"/>
    <line x1="100.5" y1="100.5" x2="100.5" y2=".5" style="fill: none; stroke: #ccc; stroke-linecap: square; stroke-miterlimit: 10;"/>
    <line x1="100.5" y1="100.5" x2=".5" y2="100.5" style="fill: none; stroke: #ccc; stroke-linecap: square; stroke-miterlimit: 10;"/>
  </g>
</svg>